<svg width="500" height="700" viewBox="0 0 500 700" fill="none" xmlns="http://www.w3.org/2000/svg">
<rect width="500" height="700" fill="white"/>
<path d="M149.952 371.928H156.672C157.568 371.928 158.176 371.768 158.496 371.448C158.816 371.064 158.976 370.456 158.976 369.624V312.024C158.976 311.128 158.816 310.52 158.496 310.2C158.176 309.88 157.568 309.72 156.672 309.72H149.952V306.648H183.744C187.52 306.648 191.04 307.352 194.304 308.76C197.632 310.168 200.288 312.12 202.272 314.616C204.256 317.048 205.248 319.832 205.248 322.968C205.248 327.192 203.68 330.616 200.544 333.24C197.408 335.864 193.568 337.784 189.024 339V339.576C191.968 340.024 194.848 340.984 197.664 342.456C200.544 343.864 202.912 345.752 204.768 348.12C206.624 350.488 207.552 353.24 207.552 356.376C207.552 360.28 206.528 363.64 204.48 366.456C202.432 369.272 199.68 371.416 196.224 372.888C192.832 374.296 189.088 375 184.992 375H149.952V371.928ZM182.016 337.752C185.472 337.752 187.808 336.536 189.024 334.104C190.24 331.608 190.848 327.896 190.848 322.968C190.848 318.808 190.112 315.576 188.64 313.272C187.168 310.904 185.152 309.72 182.592 309.72H175.488C174.656 309.72 174.048 309.88 173.664 310.2C173.344 310.52 173.184 311.128 173.184 312.024V337.752H182.016ZM182.016 371.928C185.408 371.928 187.936 370.808 189.6 368.568C191.328 366.264 192.192 362.2 192.192 356.376C192.192 350.552 191.328 346.52 189.6 344.28C187.936 341.976 185.408 340.824 182.016 340.824H173.184V369.624C173.184 370.456 173.344 371.064 173.664 371.448C174.048 371.768 174.656 371.928 175.488 371.928H182.016ZM236.348 376.152C232.892 376.152 229.66 375.128 226.652 373.08C223.644 370.968 221.244 368.088 219.452 364.44C217.66 360.792 216.764 356.728 216.764 352.248C216.764 347.768 217.66 343.704 219.452 340.056C221.244 336.408 223.644 333.56 226.652 331.512C229.66 329.4 232.892 328.344 236.348 328.344C239.804 328.344 243.036 329.4 246.044 331.512C249.052 333.56 251.452 336.408 253.244 340.056C255.036 343.704 255.932 347.768 255.932 352.248C255.932 356.728 255.036 360.792 253.244 364.44C251.452 368.088 249.052 370.968 246.044 373.08C243.036 375.128 239.804 376.152 236.348 376.152ZM236.348 373.848C239.1 373.848 240.988 372.152 242.012 368.76C243.1 365.368 243.644 359.864 243.644 352.248C243.644 344.632 243.1 339.128 242.012 335.736C240.988 332.344 239.1 330.648 236.348 330.648C233.596 330.648 231.676 332.344 230.588 335.736C229.564 339.128 229.052 344.632 229.052 352.248C229.052 359.864 229.564 365.368 230.588 368.76C231.676 372.152 233.596 373.848 236.348 373.848ZM284.723 376.152C281.267 376.152 278.035 375.128 275.027 373.08C272.019 370.968 269.619 368.088 267.827 364.44C266.035 360.792 265.139 356.728 265.139 352.248C265.139 347.768 266.035 343.704 267.827 340.056C269.619 336.408 272.019 333.56 275.027 331.512C278.035 329.4 281.267 328.344 284.723 328.344C288.179 328.344 291.411 329.4 294.419 331.512C297.427 333.56 299.827 336.408 301.619 340.056C303.411 343.704 304.307 347.768 304.307 352.248C304.307 356.728 303.411 360.792 301.619 364.44C299.827 368.088 297.427 370.968 294.419 373.08C291.411 375.128 288.179 376.152 284.723 376.152ZM284.723 373.848C287.475 373.848 289.363 372.152 290.387 368.76C291.475 365.368 292.019 359.864 292.019 352.248C292.019 344.632 291.475 339.128 290.387 335.736C289.363 332.344 287.475 330.648 284.723 330.648C281.971 330.648 280.051 332.344 278.963 335.736C277.939 339.128 277.427 344.632 277.427 352.248C277.427 359.864 277.939 365.368 278.963 368.76C280.051 372.152 281.971 373.848 284.723 373.848ZM311.402 372.696H316.778C317.354 372.696 317.738 372.6 317.93 372.408C318.186 372.152 318.314 371.736 318.314 371.16V310.488C318.314 309.912 318.218 309.528 318.026 309.336C317.834 309.08 317.418 308.952 316.778 308.952H311.402V306.648H329.45V354.552L341.93 338.904C343.21 337.304 343.85 335.864 343.85 334.584C343.85 333.752 343.562 333.112 342.986 332.664C342.474 332.152 341.866 331.896 341.162 331.896H338.282V329.496H356.618V331.896H354.41C352.874 331.896 351.466 332.408 350.186 333.432C348.97 334.392 347.53 335.96 345.866 338.136L340.202 345.24L355.178 369.528C355.818 370.616 356.394 371.416 356.906 371.928C357.418 372.44 358.026 372.696 358.73 372.696H360.746V375H338.57V372.696H340.298C340.874 372.696 341.418 372.536 341.93 372.216C342.442 371.832 342.698 371.288 342.698 370.584C342.698 369.048 342.25 367.576 341.354 366.168L333.578 353.496L329.45 358.584V371.16C329.45 371.736 329.578 372.152 329.834 372.408C330.09 372.6 330.538 372.696 331.178 372.696H334.634V375H311.402V372.696Z" fill="black"/>
<path d="M198.743 657.52H199.863C199.983 657.52 200.063 657.5 200.103 657.46C200.156 657.407 200.183 657.32 200.183 657.2V649.08H198.743V648.52H200.183V647.56C200.183 646.72 200.363 646 200.723 645.4C201.096 644.8 201.563 644.353 202.123 644.06C202.696 643.753 203.269 643.6 203.843 643.6C204.576 643.6 205.163 643.82 205.603 644.26C206.043 644.7 206.263 645.26 206.263 645.94C206.263 646.34 206.116 646.687 205.823 646.98C205.543 647.273 205.196 647.42 204.783 647.42C204.476 647.42 204.203 647.32 203.963 647.12C203.723 646.92 203.603 646.653 203.603 646.32C203.603 645.933 203.789 645.573 204.163 645.24C204.389 645.04 204.503 644.827 204.503 644.6C204.503 644.413 204.423 644.28 204.263 644.2C204.116 644.12 203.949 644.08 203.763 644.08C203.429 644.08 203.136 644.28 202.883 644.68C202.629 645.08 202.503 645.76 202.503 646.72V648.52H203.943V649.08H202.503V657.2C202.503 657.32 202.523 657.407 202.563 657.46C202.616 657.5 202.703 657.52 202.823 657.52H203.943V658H198.743V657.52ZM205.935 657.52H206.695C206.815 657.52 206.895 657.5 206.935 657.46C206.988 657.407 207.015 657.32 207.015 657.2V649.32C207.015 649.2 206.988 649.12 206.935 649.08C206.895 649.027 206.815 649 206.695 649H205.935V648.52H209.335V650.5L209.435 650.52C209.648 649.907 209.948 649.38 210.335 648.94C210.735 648.5 211.175 648.28 211.655 648.28C212.135 648.28 212.528 648.453 212.835 648.8C213.141 649.147 213.295 649.587 213.295 650.12C213.295 650.613 213.155 651.04 212.875 651.4C212.595 651.747 212.248 651.92 211.835 651.92C211.475 651.92 211.168 651.813 210.915 651.6C210.661 651.373 210.535 651.1 210.535 650.78C210.535 650.46 210.695 650.113 211.015 649.74C211.201 649.527 211.295 649.373 211.295 649.28C211.295 649.147 211.221 649.08 211.075 649.08C210.808 649.08 210.535 649.273 210.255 649.66C209.988 650.047 209.768 650.553 209.595 651.18C209.421 651.807 209.335 652.473 209.335 653.18V657.2C209.335 657.32 209.355 657.407 209.395 657.46C209.448 657.5 209.535 657.52 209.655 657.52H210.295V658H205.935V657.52ZM218.847 658.24C218.127 658.24 217.453 658.027 216.827 657.6C216.2 657.16 215.7 656.56 215.327 655.8C214.953 655.04 214.767 654.193 214.767 653.26C214.767 652.327 214.953 651.48 215.327 650.72C215.7 649.96 216.2 649.367 216.827 648.94C217.453 648.5 218.127 648.28 218.847 648.28C219.567 648.28 220.24 648.5 220.867 648.94C221.493 649.367 221.993 649.96 222.367 650.72C222.74 651.48 222.927 652.327 222.927 653.26C222.927 654.193 222.74 655.04 222.367 655.8C221.993 656.56 221.493 657.16 220.867 657.6C220.24 658.027 219.567 658.24 218.847 658.24ZM218.847 657.76C219.42 657.76 219.813 657.407 220.027 656.7C220.253 655.993 220.367 654.847 220.367 653.26C220.367 651.673 220.253 650.527 220.027 649.82C219.813 649.113 219.42 648.76 218.847 648.76C218.273 648.76 217.873 649.113 217.647 649.82C217.433 650.527 217.327 651.673 217.327 653.26C217.327 654.847 217.433 655.993 217.647 656.7C217.873 657.407 218.273 657.76 218.847 657.76ZM224.685 657.52H225.445C225.565 657.52 225.645 657.5 225.685 657.46C225.738 657.407 225.765 657.32 225.765 657.2V649.32C225.765 649.2 225.738 649.12 225.685 649.08C225.645 649.027 225.565 649 225.445 649H224.685V648.52H228.085V650.5L228.185 650.52C228.785 649.027 229.618 648.28 230.685 648.28C231.511 648.28 232.085 648.487 232.405 648.9C232.738 649.313 232.965 649.84 233.085 650.48H233.185C233.425 649.8 233.751 649.267 234.165 648.88C234.591 648.48 235.051 648.28 235.545 648.28C235.878 648.28 236.165 648.32 236.405 648.4C236.645 648.467 236.871 648.573 237.085 648.72C237.418 648.96 237.678 649.293 237.865 649.72C238.065 650.147 238.165 650.587 238.165 651.04V657.2C238.165 657.32 238.185 657.407 238.225 657.46C238.278 657.5 238.365 657.52 238.485 657.52H239.245V658H234.885V657.52H235.525C235.645 657.52 235.725 657.5 235.765 657.46C235.818 657.407 235.845 657.32 235.845 657.2V650.46C235.845 649.433 235.538 648.92 234.925 648.92C234.645 648.92 234.365 649.107 234.085 649.48C233.805 649.84 233.571 650.333 233.385 650.96C233.211 651.573 233.125 652.227 233.125 652.92V657.2C233.125 657.32 233.145 657.407 233.185 657.46C233.238 657.5 233.325 657.52 233.445 657.52H234.085V658H229.845V657.52H230.485C230.605 657.52 230.685 657.5 230.725 657.46C230.778 657.407 230.805 657.32 230.805 657.2V650.1C230.805 649.7 230.758 649.407 230.665 649.22C230.571 649.02 230.365 648.92 230.045 648.92C229.765 648.92 229.471 649.107 229.165 649.48C228.858 649.853 228.598 650.347 228.385 650.96C228.185 651.573 228.085 652.227 228.085 652.92V657.2C228.085 657.32 228.105 657.407 228.145 657.46C228.198 657.5 228.285 657.52 228.405 657.52H229.045V658H224.685V657.52ZM246.726 657.36H248.126C248.3 657.36 248.42 657.32 248.486 657.24C248.566 657.147 248.606 657.007 248.606 656.82V644.88C248.606 644.693 248.573 644.567 248.506 644.5C248.44 644.433 248.313 644.4 248.126 644.4H246.726V643.76H253.446V644.4H252.046C251.873 644.4 251.746 644.433 251.666 644.5C251.6 644.567 251.566 644.693 251.566 644.88V656.82C251.566 657.007 251.6 657.147 251.666 657.24C251.746 657.32 251.873 657.36 252.046 657.36H254.066C254.786 657.36 255.4 656.987 255.906 656.24C256.426 655.493 256.813 654.707 257.066 653.88C257.16 653.573 257.26 653.193 257.366 652.74C257.473 652.287 257.54 651.987 257.566 651.84H258.206L258.046 658H246.726V657.36ZM261.845 646.48C261.431 646.48 261.078 646.34 260.785 646.06C260.505 645.767 260.365 645.413 260.365 645C260.365 644.573 260.505 644.22 260.785 643.94C261.078 643.66 261.431 643.52 261.845 643.52C262.271 643.52 262.625 643.66 262.905 643.94C263.185 644.22 263.325 644.573 263.325 645C263.325 645.413 263.185 645.767 262.905 646.06C262.625 646.34 262.271 646.48 261.845 646.48ZM259.685 657.52H260.445C260.565 657.52 260.645 657.5 260.685 657.46C260.738 657.407 260.765 657.32 260.765 657.2V649.32C260.765 649.2 260.738 649.12 260.685 649.08C260.645 649.027 260.565 649 260.445 649H259.685V648.52H263.085V657.2C263.085 657.32 263.105 657.407 263.145 657.46C263.198 657.5 263.285 657.52 263.405 657.52H264.165V658H259.685V657.52ZM270.803 658.24C270.323 658.24 269.916 658.12 269.583 657.88C269.263 657.64 268.976 657.327 268.723 656.94C268.563 656.687 268.429 656.513 268.323 656.42C268.216 656.327 268.089 656.28 267.943 656.28C267.716 656.28 267.523 656.467 267.363 656.84L266.803 658H266.483V644.56C266.483 644.44 266.456 644.36 266.403 644.32C266.363 644.267 266.283 644.24 266.163 644.24H265.043V643.76H268.803V649.66L268.923 649.7C269.136 649.26 269.409 648.913 269.743 648.66C270.076 648.407 270.456 648.28 270.883 648.28C271.576 648.28 272.189 648.52 272.723 649C273.256 649.467 273.669 650.08 273.963 650.84C274.256 651.6 274.403 652.407 274.403 653.26C274.403 654.1 274.249 654.907 273.943 655.68C273.636 656.44 273.209 657.06 272.663 657.54C272.116 658.007 271.496 658.24 270.803 658.24ZM270.523 657.6C271.403 657.6 271.843 656.153 271.843 653.26C271.843 650.367 271.403 648.92 270.523 648.92C270.283 648.92 270.029 649.08 269.763 649.4C269.496 649.72 269.269 650.213 269.083 650.88C268.896 651.547 268.803 652.36 268.803 653.32C268.803 654.107 268.883 654.827 269.043 655.48C269.203 656.133 269.409 656.653 269.663 657.04C269.929 657.413 270.216 657.6 270.523 657.6ZM276.169 657.52H276.929C277.049 657.52 277.129 657.5 277.169 657.46C277.222 657.407 277.249 657.32 277.249 657.2V649.32C277.249 649.2 277.222 649.12 277.169 649.08C277.129 649.027 277.049 649 276.929 649H276.169V648.52H279.569V650.5L279.669 650.52C279.882 649.907 280.182 649.38 280.569 648.94C280.969 648.5 281.409 648.28 281.889 648.28C282.369 648.28 282.762 648.453 283.069 648.8C283.376 649.147 283.529 649.587 283.529 650.12C283.529 650.613 283.389 651.04 283.109 651.4C282.829 651.747 282.482 651.92 282.069 651.92C281.709 651.92 281.402 651.813 281.149 651.6C280.896 651.373 280.769 651.1 280.769 650.78C280.769 650.46 280.929 650.113 281.249 649.74C281.436 649.527 281.529 649.373 281.529 649.28C281.529 649.147 281.456 649.08 281.309 649.08C281.042 649.08 280.769 649.273 280.489 649.66C280.222 650.047 280.002 650.553 279.829 651.18C279.656 651.807 279.569 652.473 279.569 653.18V657.2C279.569 657.32 279.589 657.407 279.629 657.46C279.682 657.5 279.769 657.52 279.889 657.52H280.529V658H276.169V657.52ZM286.841 658.24C286.388 658.24 286.014 658.093 285.721 657.8C285.428 657.507 285.281 657.133 285.281 656.68C285.281 656.227 285.428 655.853 285.721 655.56C286.014 655.267 286.388 655.12 286.841 655.12C287.294 655.12 287.668 655.267 287.961 655.56C288.254 655.853 288.401 656.227 288.401 656.68C288.401 657.133 288.254 657.507 287.961 657.8C287.668 658.093 287.294 658.24 286.841 658.24ZM292.446 658.24C291.993 658.24 291.62 658.093 291.326 657.8C291.033 657.507 290.886 657.133 290.886 656.68C290.886 656.227 291.033 655.853 291.326 655.56C291.62 655.267 291.993 655.12 292.446 655.12C292.9 655.12 293.273 655.267 293.566 655.56C293.86 655.853 294.006 656.227 294.006 656.68C294.006 657.133 293.86 657.507 293.566 657.8C293.273 658.093 292.9 658.24 292.446 658.24ZM298.052 658.24C297.599 658.24 297.225 658.093 296.932 657.8C296.639 657.507 296.492 657.133 296.492 656.68C296.492 656.227 296.639 655.853 296.932 655.56C297.225 655.267 297.599 655.12 298.052 655.12C298.505 655.12 298.879 655.267 299.172 655.56C299.465 655.853 299.612 656.227 299.612 656.68C299.612 657.133 299.465 657.507 299.172 657.8C298.879 658.093 298.505 658.24 298.052 658.24Z" fill="#3F3F3F"/>
</svg>
