<svg width="1258" height="638" viewBox="0 0 1258 638" fill="none" xmlns="http://www.w3.org/2000/svg">
<path d="M672.493 91.2684C672.493 91.2684 687.208 72.0172 702.374 74.7822C717.54 77.5464 727.113 87.8362 736.911 84.9191C736.911 84.9191 713.869 103.349 698.185 103.729C679.773 104.175 672.493 91.2684 672.493 91.2684Z" fill="#8DBA3D"/>
<path d="M659.181 80.159C659.181 80.159 669.617 86.6197 676.753 75.65C686.984 59.9219 677.699 33.6079 677.699 33.6079C677.699 33.6079 651.177 55.0836 648.877 67.7313C646.578 80.379 659.181 80.159 659.181 80.159Z" fill="#8DBA3D"/>
<path d="M692.374 127.908C692.374 127.908 690.974 119.948 702.178 111.768C714.985 102.418 737.308 101.909 737.308 101.909C737.308 101.909 734.285 121.294 714.309 132.569C703.998 138.389 694.998 133.747 692.374 127.908Z" fill="#8DBA3D"/>
<path d="M707.763 142.77C707.763 142.77 721.429 131.143 737.055 135.535C753.948 140.283 758.782 152.386 768.836 150.529C768.836 150.529 746.724 166.848 730.411 164.228C706.811 160.438 707.763 142.77 707.763 142.77Z" fill="#8DBA3D"/>
<path d="M671.205 142.988C671.205 142.988 684.309 147.382 686.682 162.89C689.053 178.398 673.323 192.12 674.369 203.869C674.369 203.869 653.454 185.323 656.079 167.205C658.703 149.089 671.205 142.988 671.205 142.988Z" fill="#8DBA3D"/>
<path d="M635.576 124.278C635.576 124.278 646.558 127.448 645.968 141.747C645.377 156.046 633.731 162.974 634.776 174.722C634.776 174.722 615.686 164.549 617.885 146.019C620.083 127.489 635.576 124.278 635.576 124.278Z" fill="#8DBA3D"/>
<path d="M608.425 109.622C608.425 109.622 626.23 99.6636 614.368 88.9258C607.536 82.7409 595.241 88.6288 584.745 89.2321C574.249 89.8354 563.525 89.3925 563.525 89.3925C563.525 89.3925 570.968 106.493 584.176 116.769C597.784 127.358 609.81 116.742 608.425 109.622Z" fill="#8DBA3D"/>
<path d="M749.112 152.134C749.112 152.134 685.642 144.432 654.669 110.496C623.763 76.6329 621.084 46.6945 621.179 36.5641C621.197 34.6494 619.491 33.1784 617.596 33.4491C615.928 33.6876 614.739 35.1971 614.915 36.8729C616.773 54.4982 631.961 143.955 749.112 152.134Z" fill="#47A148"/>
<path d="M674.436 127.935C674.319 128.056 674.231 128.208 674.187 128.383C674.05 128.918 674.375 129.462 674.91 129.598C684.641 132.071 695.913 130.271 707.511 124.394C716.222 119.979 721.972 114.912 722.213 114.699C722.638 114.321 722.663 113.7 722.297 113.287C721.93 112.874 721.299 112.836 720.885 113.203C720.658 113.405 697.828 133.357 675.403 127.659C675.041 127.569 674.677 127.685 674.436 127.935Z" fill="#47A148"/>
<path d="M630.291 78.6934C630.255 78.7316 630.219 78.7739 630.188 78.8197C629.874 79.2743 629.986 79.8968 630.44 80.2106C644.714 90.0966 665.592 92.3206 680.592 92.4463C696.781 92.581 709.811 90.3684 709.941 90.3463C710.486 90.2548 710.849 89.7371 710.756 89.1914C710.663 88.6477 710.146 88.2819 709.601 88.3763C709.089 88.4644 658.151 96.9717 631.578 78.567C631.171 78.2849 630.626 78.3474 630.291 78.6934Z" fill="#47A148"/>
<path d="M672.32 54.8482C672.208 54.9633 672.123 55.1077 672.076 55.2733C672.009 55.5106 665.278 79.0355 650.438 86.9869C649.951 87.2536 649.768 87.8537 650.029 88.3413C650.29 88.8276 650.897 89.0108 651.383 88.7505C666.982 80.3891 673.724 56.8124 674.003 55.8125C674.151 55.2809 673.841 54.729 673.309 54.5806C672.943 54.4774 672.567 54.5921 672.32 54.8482Z" fill="#47A148"/>
<path d="M632.547 87.4802C632.315 87.7198 632.208 88.0696 632.295 88.4175C632.389 88.7956 641.564 126.621 629.397 161.018C629.214 161.539 629.486 162.109 630.007 162.294C630.528 162.48 631.096 162.204 631.283 161.685C643.656 126.708 634.331 88.3183 634.236 87.9345C634.102 87.3979 633.56 87.0729 633.024 87.206C632.835 87.2524 632.672 87.35 632.547 87.4802Z" fill="#47A148"/>
<path d="M589.928 101.672C589.872 101.73 589.823 101.795 589.78 101.868C589.504 102.347 589.669 102.958 590.147 103.233C605.817 112.267 617.517 111.432 624.573 109.14C632.281 106.638 636.199 101.998 636.362 101.801C636.715 101.377 636.657 100.748 636.233 100.395C635.81 100.041 635.175 100.1 634.825 100.522C634.223 101.242 619.733 117.98 591.147 101.501C590.74 101.267 590.239 101.35 589.928 101.672Z" fill="#47A148"/>
<path d="M662.984 121.832C662.672 122.154 662.608 122.657 662.854 123.055C663.022 123.322 679.388 150.159 670.967 184.764C670.836 185.301 671.166 185.842 671.702 185.972C672.239 186.104 672.781 185.775 672.91 185.236C681.537 149.785 664.722 122.269 664.551 121.996C664.26 121.528 663.643 121.385 663.175 121.677C663.103 121.722 663.039 121.774 662.984 121.832Z" fill="#47A148"/>
<path d="M137.823 285.729C137.823 285.729 158.001 272.817 156.134 252.206C154.35 232.498 135.387 218.141 136.614 204.634C136.614 204.634 115.782 231.798 120.272 254.897C124.449 276.379 137.823 285.729 137.823 285.729Z" fill="#47A148"/>
<path d="M138.279 310.969C138.279 310.969 149.2 326.087 171.71 319.029C194.22 311.971 189.453 310.077 206.843 305.096C206.843 305.096 185.76 291.235 163.685 292.43C137.677 293.839 138.279 310.969 138.279 310.969Z" fill="#47A148"/>
<path d="M116.763 309.513C117.267 307.702 129.217 291.896 115.94 278.853C104.3 267.418 96.3824 268.529 78.3146 257.058C78.3146 257.058 79.665 281.623 90.6407 294.044C101.617 306.464 116.763 309.513 116.763 309.513Z" fill="#47A148"/>
<path d="M110.562 359.089C110.562 359.089 130.451 368.921 150.434 361.612C175.671 352.382 177.406 341.816 190.307 333.315C153.105 324.707 118.435 335.727 110.562 359.089Z" fill="#47A148"/>
<path d="M77.404 364.678C77.404 364.678 89.676 350.735 85.9759 333.904C82.2758 317.074 67.6682 305.786 65.2749 291.269C65.2749 291.269 40.2943 338.931 77.404 364.678Z" fill="#47A148"/>
<path d="M87.7426 426.515C87.7898 425.213 86.9776 423.899 86.5653 422.693C85.5617 419.757 84.9114 416.701 84.5401 413.623C83.8027 407.506 84.1958 401.286 85.219 395.225C87.5563 381.379 92.9764 368.036 99.3654 355.601C106.013 342.662 114.027 330.546 122.103 318.472C129.943 306.75 137.753 294.56 141.263 280.739C144.268 268.903 143.942 256.246 140.332 244.58C139.895 243.168 139.411 241.771 138.884 240.391C138.651 239.779 137.785 240.229 137.982 240.825C137.893 240.555 138.08 241.157 138.107 241.251C138.244 241.732 138.365 242.216 138.477 242.702C138.908 244.555 139.216 246.436 139.448 248.323C140.291 255.186 140.095 262.172 139.22 269.022C138.034 278.309 135.811 287.556 131.397 295.859C126.4 305.257 120.097 313.927 114.364 322.877C104.325 338.549 94.6826 354.664 87.1977 371.737C82.5866 382.257 78.6006 393.458 77.7685 405.002C77.4716 409.122 77.6191 413.286 78.3651 417.354C78.7057 419.21 79.1711 421.041 79.7561 422.835C80.3124 424.54 80.8992 426.399 81.8033 427.96C82.6326 429.391 84.4766 429.969 85.9686 429.236C86.9887 428.673 87.6995 427.705 87.7426 426.515Z" fill="#489246"/>
<path d="M180.302 304.737C170.813 303.157 160.866 304.332 151.573 306.533C141.856 308.835 132.217 312.435 123.759 317.801C119.774 320.33 116.007 323.268 113.011 326.943C113.603 327.235 114.196 327.528 114.788 327.82C117.393 320.381 117.915 312.308 116.586 304.554C115.257 296.796 112.085 289.346 107.352 283.051C104.682 279.503 101.492 276.349 97.9019 273.733C96.8612 272.974 95.7445 274.634 96.7835 275.391C102.876 279.831 107.654 285.898 110.821 292.721C114.004 299.575 115.579 307.192 115.257 314.749C115.077 318.99 114.295 323.176 112.891 327.183C112.498 328.304 113.985 328.899 114.668 328.06C117.19 324.967 120.37 322.423 123.678 320.218C127.535 317.647 131.705 315.534 135.965 313.723C145.154 309.816 155.023 307.241 164.973 306.34C170.023 305.882 175.16 305.899 180.171 306.733C180.704 306.822 181.202 306.301 181.234 305.8C181.273 305.216 180.837 304.826 180.302 304.737Z" fill="#489246"/>
<path d="M64.3453 305.879C68.1313 310.325 71.0392 315.469 72.922 320.997C74.9147 326.846 75.4236 332.907 75.3968 339.05C75.3829 342.288 75.2824 345.525 75.3714 348.762C75.4338 351.032 75.5399 353.305 75.6816 355.572C75.9222 359.434 76.3838 363.261 77.42 366.999C78.9998 372.695 81.5812 378.067 84.3157 383.285C84.9134 384.425 86.7167 383.559 86.118 382.417C83.6415 377.693 81.2559 372.839 79.7027 367.72C78.5704 363.989 77.9874 360.156 77.7152 356.273C77.3415 350.952 77.3351 345.638 77.3847 340.309C77.4422 334.083 77.1197 327.921 75.3041 321.927C73.3782 315.569 70.1727 309.64 65.8639 304.579C65.0289 303.596 63.5108 304.899 64.3453 305.879Z" fill="#489246"/>
<path d="M168.574 339.55C163.623 342.723 158.032 344.847 152.427 346.545C147.474 348.045 142.428 349.2 137.364 350.247C126.324 352.529 115.228 355.391 105.166 360.603C98.865 363.866 93.106 368.087 88.4288 373.446C88.073 373.854 88.2907 374.559 88.6986 374.834C89.1927 375.167 89.7305 374.973 90.0869 374.564C98.3201 365.132 110.074 359.697 121.852 356.134C126.788 354.64 131.803 353.433 136.853 352.395C141.714 351.396 146.561 350.324 151.33 348.946C157.605 347.135 163.916 344.896 169.442 341.353C169.897 341.062 170.164 340.546 169.909 340.018C169.697 339.577 169.031 339.257 168.574 339.55Z" fill="#489246"/>
<path d="M636.18 599.733C636.18 599.733 650.442 621.72 673.617 613.401C696.792 605.082 700.952 574.775 702.735 557.542C704.518 540.309 707.296 518.935 713.431 505.249C721.156 488.016 721.75 469 721.75 469C721.75 469 686.096 495.147 671.834 503.466C657.572 511.785 604.091 535.555 604.091 563.484C604.091 591.413 632.615 597.95 632.615 597.95C632.615 597.95 622.943 619.443 603.6 631.261C601.973 632.255 601.497 634.397 602.591 635.959C603.72 637.571 606.005 637.84 607.47 636.525C614.069 630.605 630.531 614.796 636.18 599.733Z" fill="#8DBA3D"/>
<path d="M705.112 518.322L683.563 528.253C697.589 506.909 709.241 488.852 708.677 488.61C708.018 488.328 696.495 505.571 682.224 527.126L680.748 504.06L680.267 530.084C675.976 536.569 671.477 543.378 666.978 550.171C660.467 545.301 659.355 520.699 659.355 520.699C659.355 520.699 658.286 543.276 665.344 552.638C660.946 559.277 656.575 565.857 652.425 572.063C638.567 565.978 638.557 533.178 638.557 533.178C638.557 533.178 634.127 563.699 651.391 573.609C647.54 579.362 643.9 584.759 640.63 589.541C619.429 577.655 620.73 548.628 620.73 548.628C620.73 548.628 615.222 576.899 639.176 591.663C637.987 593.394 636.852 595.034 635.784 596.563L637.567 597.554C637.567 597.554 638.765 595.763 640.84 592.657C663.384 605.245 684.908 594.979 684.908 594.979C684.908 594.979 666.09 601.714 642.717 590.621C642.584 590.558 642.463 590.486 642.332 590.422C645.031 586.378 648.721 580.846 652.988 574.436C668.903 581.723 696.199 568.238 696.199 568.238C696.199 568.238 669.041 577.157 654.151 572.69C657.973 566.946 662.208 560.573 666.58 553.976C667.744 553.958 680.936 553.573 697.388 545.063C697.388 545.063 676.527 553.477 668.578 550.961C672.764 544.641 677.033 538.179 681.153 531.92C684.58 530.189 696.834 523.897 705.112 518.322Z" fill="#47A148"/>
<path d="M1116.74 275.975C1116.74 275.975 1148.21 265.815 1158.01 260.926C1174.55 252.68 1190.02 247.962 1207 256.891C1220.8 264.153 1225.07 277.578 1225.07 277.578C1225.07 277.578 1241.64 278.472 1252.12 274.405C1253.58 273.84 1255.19 274.692 1255.57 276.208C1255.93 277.66 1255 279.118 1253.53 279.397C1248.31 280.387 1236.37 282.281 1225.62 281.296C1225.62 281.296 1221.5 304.704 1193.51 309.424C1170.72 313.268 1131.37 288.813 1116.74 275.975Z" fill="#47A148"/>
<path d="M1185.57 259.516C1185.41 259.73 1185.44 260.038 1185.65 260.208L1209.34 279.467C1204.83 279.573 1199.44 279.569 1193.61 279.489L1168.35 261.687C1168.13 261.53 1167.82 261.579 1167.66 261.799C1167.5 262.016 1167.54 262.325 1167.76 262.491L1189.77 279.425C1184.37 279.325 1178.69 279.169 1173.07 278.985L1151.42 268.326C1151.18 268.209 1150.89 268.299 1150.76 268.533C1150.63 268.768 1150.71 269.059 1150.93 269.2L1166.42 278.753C1146.82 278.031 1129.53 277.077 1129.16 277.057C1128.89 277.041 1128.66 277.248 1128.63 277.517C1128.61 277.789 1128.81 278.027 1129.08 278.054C1129.45 278.09 1148.51 279.952 1169.83 281.183L1149.53 293.442C1149.3 293.583 1149.22 293.881 1149.35 294.116C1149.49 294.351 1149.78 294.438 1150.02 294.312L1174.42 281.436C1179.54 281.704 1184.71 281.926 1189.73 282.069L1173.22 298.921C1173.03 299.111 1173.03 299.416 1173.21 299.612C1173.39 299.807 1173.7 299.824 1173.9 299.65L1194.3 282.179C1199.75 282.282 1204.92 282.276 1209.51 282.116L1190.66 302.611C1190.48 302.808 1190.48 303.116 1190.68 303.307C1190.87 303.495 1191.18 303.498 1191.37 303.313L1213.9 281.902C1216.84 281.712 1219.45 281.439 1221.61 281.064C1221.74 281.04 1221.86 280.964 1221.94 280.852C1221.98 280.793 1222 280.727 1222.02 280.658C1222.03 280.596 1222.03 280.532 1222.01 280.469L1221.69 278.904C1221.66 278.77 1221.58 278.654 1221.46 278.582C1221.35 278.51 1221.21 278.488 1221.07 278.522C1219.59 278.893 1217.05 279.15 1213.72 279.313L1186.25 259.415C1186.04 259.256 1185.73 259.302 1185.57 259.516Z" fill="#8DBA3D"/>
</svg>
